<svg width="54" height="48" viewBox="0 0 54 48" fill="none" xmlns="http://www.w3.org/2000/svg">
<path fill-rule="evenodd" clip-rule="evenodd" d="M12.6038 24.0338C22.0232 24.0338 28.557 15.2693 28.557 8.12017C28.557 2.91323 23.7262 0.636719 19.1336 0.636719C8.79846 0.636719 3.17383 10.0616 3.17383 16.5511C3.17383 21.7573 8.05594 24.0338 12.6038 24.0338Z" fill="#EA1D2C"/>
<path fill-rule="evenodd" clip-rule="evenodd" d="M37.7656 23.9127C47.185 23.9127 53.7188 15.1482 53.7188 7.99907C53.7188 2.79214 48.879 0.515625 44.2905 0.515625C33.9602 0.515625 28.3315 9.94049 28.3315 16.4301C28.3315 21.6362 33.2185 23.9127 37.7656 23.9127Z" fill="#EA1D2C"/>
<path fill-rule="evenodd" clip-rule="evenodd" d="M42.1154 40.2936C36.2817 45.3541 28.4832 47.9511 20.0072 47.4151C9.31995 46.7457 1.91017 38.3148 0.421875 29.765H0.926107C3.33097 35.2282 9.18169 40.2659 16.5272 41.0939C23.6979 41.9015 32.4854 38.5994 37.3081 33.887L31.8998 29.7195L47.9628 29.765L44.5056 47.0898L42.1154 40.2936Z" fill="#EA1D2C"/>
</svg>
