<svg width="75" height="66" viewBox="0 0 75 66" fill="none" xmlns="http://www.w3.org/2000/svg">
<path fill-rule="evenodd" clip-rule="evenodd" d="M17.0054 33.0472C30.0878 33.0472 39.1627 20.8744 39.1627 10.9449C39.1627 3.71309 32.4531 0.55127 26.0745 0.55127C11.7202 0.55127 3.9082 13.6414 3.9082 22.6546C3.9082 29.8854 10.6889 33.0472 17.0054 33.0472" fill="white"/>
<path fill-rule="evenodd" clip-rule="evenodd" d="M51.9524 32.8787C65.0349 32.8787 74.1097 20.7059 74.1097 10.7765C74.1097 3.54463 67.3878 0.382812 61.0148 0.382812C46.6672 0.382812 38.8496 13.4729 38.8496 22.4862C38.8496 29.7169 45.6371 32.8787 51.9524 32.8787" fill="white"/>
<path fill-rule="evenodd" clip-rule="evenodd" d="M57.9936 55.6301C49.8913 62.6586 39.06 66.2655 27.2878 65.5211C12.4444 64.5914 2.15302 52.8817 0.0859375 41.0071H0.78626C4.12635 48.5948 12.2523 55.5917 22.4545 56.7417C32.4137 57.8634 44.6186 53.2771 51.3168 46.732L43.8053 40.9438L66.1151 41.0071L61.3133 65.0692L57.9936 55.6301Z" fill="white"/>
</svg>
